M48
; DRILL file {KiCad 8.0.8} date 2025-06-20T13:46:19-0400
; FORMAT={-:-/ absolute / metric / decimal}
; #@! TF.CreationDate,2025-06-20T13:46:19-04:00
; #@! TF.GenerationSoftware,Kicad,Pcbnew,8.0.8
; #@! TF.FileFunction,Plated,1,2,PTH
FMAT,2
METRIC
; #@! TA.AperFunction,Plated,PTH,ComponentDrill
T1C1.000
%
G90
G05
T1
X97.79Y0.0
X97.79Y-2.54
X97.79Y-5.08
X97.79Y-7.62
X97.79Y-10.16
X97.79Y-12.7
X97.79Y-15.24
X97.79Y-17.78
X97.79Y-20.32
X97.79Y-22.86
X97.79Y-25.4
X97.79Y-27.94
X97.79Y-30.48
X97.79Y-33.02
X101.6Y0.0
X101.6Y-2.54
X101.6Y-5.08
X101.6Y-7.62
X101.6Y-10.16
X101.6Y-12.7
X101.6Y-15.24
X101.6Y-17.78
X101.6Y-20.32
X101.6Y-22.86
X101.6Y-25.4
X101.6Y-27.94
X101.6Y-30.48
X101.6Y-33.02
X109.22Y0.0
X109.22Y-2.54
X109.22Y-5.08
X109.22Y-7.62
X109.22Y-10.16
X109.22Y-12.7
X109.22Y-15.24
X109.22Y-17.78
X109.22Y-20.32
X109.22Y-22.86
X109.22Y-25.4
X109.22Y-27.94
X109.22Y-30.48
X109.22Y-33.02
X113.03Y0.0
X113.03Y-2.54
X113.03Y-5.08
X113.03Y-7.62
X113.03Y-10.16
X113.03Y-12.7
X113.03Y-15.24
X113.03Y-17.78
X113.03Y-20.32
X113.03Y-22.86
X113.03Y-25.4
X113.03Y-27.94
X113.03Y-30.48
X113.03Y-33.02
M30
