G04 #@! TF.GenerationSoftware,KiCad,Pcbnew,8.0.8*
G04 #@! TF.CreationDate,2025-06-20T13:46:13-04:00*
G04 #@! TF.ProjectId,ZiffAdapter,5a696666-4164-4617-9074-65722e6b6963,rev?*
G04 #@! TF.SameCoordinates,Original*
G04 #@! TF.FileFunction,Copper,L2,Bot*
G04 #@! TF.FilePolarity,Positive*
%FSLAX46Y46*%
G04 Gerber Fmt 4.6, Leading zero omitted, Abs format (unit mm)*
G04 Created by KiCad (PCBNEW 8.0.8) date 2025-06-20 13:46:13*
%MOMM*%
%LPD*%
G01*
G04 APERTURE LIST*
%ADD10C,0.254000*%
G04 #@! TA.AperFunction,NonConductor*
%ADD11C,0.254000*%
G04 #@! TD*
G04 #@! TA.AperFunction,ComponentPad*
%ADD12O,3.000000X1.500000*%
G04 #@! TD*
G04 #@! TA.AperFunction,ComponentPad*
%ADD13R,1.700000X1.700000*%
G04 #@! TD*
G04 #@! TA.AperFunction,ComponentPad*
%ADD14O,1.700000X1.700000*%
G04 #@! TD*
G04 APERTURE END LIST*
D10*
D11*
X105686642Y-27978514D02*
X105735023Y-28075275D01*
X105735023Y-28075275D02*
X105735023Y-28268799D01*
X105735023Y-28268799D02*
X105686642Y-28365561D01*
X105686642Y-28365561D02*
X105589880Y-28462323D01*
X105589880Y-28462323D02*
X105493118Y-28510704D01*
X105493118Y-28510704D02*
X105299594Y-28510704D01*
X105299594Y-28510704D02*
X105202832Y-28462323D01*
X105202832Y-28462323D02*
X105106070Y-28365561D01*
X105106070Y-28365561D02*
X105057689Y-28268799D01*
X105057689Y-28268799D02*
X105057689Y-28075275D01*
X105057689Y-28075275D02*
X105106070Y-27978514D01*
X106073689Y-28172037D02*
X106025308Y-28413942D01*
X106025308Y-28413942D02*
X105880166Y-28655847D01*
X105880166Y-28655847D02*
X105638261Y-28800990D01*
X105638261Y-28800990D02*
X105396356Y-28849371D01*
X105396356Y-28849371D02*
X105154451Y-28800990D01*
X105154451Y-28800990D02*
X104912547Y-28655847D01*
X104912547Y-28655847D02*
X104767404Y-28413942D01*
X104767404Y-28413942D02*
X104719023Y-28172037D01*
X104719023Y-28172037D02*
X104767404Y-27930133D01*
X104767404Y-27930133D02*
X104912547Y-27688228D01*
X104912547Y-27688228D02*
X105154451Y-27543085D01*
X105154451Y-27543085D02*
X105396356Y-27494704D01*
X105396356Y-27494704D02*
X105638261Y-27543085D01*
X105638261Y-27543085D02*
X105880166Y-27688228D01*
X105880166Y-27688228D02*
X106025308Y-27930133D01*
X106025308Y-27930133D02*
X106073689Y-28172037D01*
X105831785Y-26333562D02*
X105880166Y-26285181D01*
X105880166Y-26285181D02*
X105928547Y-26188419D01*
X105928547Y-26188419D02*
X105928547Y-25946514D01*
X105928547Y-25946514D02*
X105880166Y-25849752D01*
X105880166Y-25849752D02*
X105831785Y-25801371D01*
X105831785Y-25801371D02*
X105735023Y-25752990D01*
X105735023Y-25752990D02*
X105638261Y-25752990D01*
X105638261Y-25752990D02*
X105493118Y-25801371D01*
X105493118Y-25801371D02*
X104912547Y-26381943D01*
X104912547Y-26381943D02*
X104912547Y-25752990D01*
X105928547Y-25124038D02*
X105928547Y-25027276D01*
X105928547Y-25027276D02*
X105880166Y-24930514D01*
X105880166Y-24930514D02*
X105831785Y-24882133D01*
X105831785Y-24882133D02*
X105735023Y-24833752D01*
X105735023Y-24833752D02*
X105541499Y-24785371D01*
X105541499Y-24785371D02*
X105299594Y-24785371D01*
X105299594Y-24785371D02*
X105106070Y-24833752D01*
X105106070Y-24833752D02*
X105009308Y-24882133D01*
X105009308Y-24882133D02*
X104960928Y-24930514D01*
X104960928Y-24930514D02*
X104912547Y-25027276D01*
X104912547Y-25027276D02*
X104912547Y-25124038D01*
X104912547Y-25124038D02*
X104960928Y-25220800D01*
X104960928Y-25220800D02*
X105009308Y-25269181D01*
X105009308Y-25269181D02*
X105106070Y-25317562D01*
X105106070Y-25317562D02*
X105299594Y-25365943D01*
X105299594Y-25365943D02*
X105541499Y-25365943D01*
X105541499Y-25365943D02*
X105735023Y-25317562D01*
X105735023Y-25317562D02*
X105831785Y-25269181D01*
X105831785Y-25269181D02*
X105880166Y-25220800D01*
X105880166Y-25220800D02*
X105928547Y-25124038D01*
X105831785Y-24398324D02*
X105880166Y-24349943D01*
X105880166Y-24349943D02*
X105928547Y-24253181D01*
X105928547Y-24253181D02*
X105928547Y-24011276D01*
X105928547Y-24011276D02*
X105880166Y-23914514D01*
X105880166Y-23914514D02*
X105831785Y-23866133D01*
X105831785Y-23866133D02*
X105735023Y-23817752D01*
X105735023Y-23817752D02*
X105638261Y-23817752D01*
X105638261Y-23817752D02*
X105493118Y-23866133D01*
X105493118Y-23866133D02*
X104912547Y-24446705D01*
X104912547Y-24446705D02*
X104912547Y-23817752D01*
X105928547Y-22898514D02*
X105928547Y-23382324D01*
X105928547Y-23382324D02*
X105444737Y-23430705D01*
X105444737Y-23430705D02*
X105493118Y-23382324D01*
X105493118Y-23382324D02*
X105541499Y-23285562D01*
X105541499Y-23285562D02*
X105541499Y-23043657D01*
X105541499Y-23043657D02*
X105493118Y-22946895D01*
X105493118Y-22946895D02*
X105444737Y-22898514D01*
X105444737Y-22898514D02*
X105347975Y-22850133D01*
X105347975Y-22850133D02*
X105106070Y-22850133D01*
X105106070Y-22850133D02*
X105009308Y-22898514D01*
X105009308Y-22898514D02*
X104960928Y-22946895D01*
X104960928Y-22946895D02*
X104912547Y-23043657D01*
X104912547Y-23043657D02*
X104912547Y-23285562D01*
X104912547Y-23285562D02*
X104960928Y-23382324D01*
X104960928Y-23382324D02*
X105009308Y-23430705D01*
X105928547Y-21350324D02*
X105202832Y-21350324D01*
X105202832Y-21350324D02*
X105057689Y-21398705D01*
X105057689Y-21398705D02*
X104960928Y-21495467D01*
X104960928Y-21495467D02*
X104912547Y-21640610D01*
X104912547Y-21640610D02*
X104912547Y-21737372D01*
X105880166Y-19560229D02*
X105928547Y-19656991D01*
X105928547Y-19656991D02*
X105928547Y-19802134D01*
X105928547Y-19802134D02*
X105880166Y-19947277D01*
X105880166Y-19947277D02*
X105783404Y-20044039D01*
X105783404Y-20044039D02*
X105686642Y-20092420D01*
X105686642Y-20092420D02*
X105493118Y-20140801D01*
X105493118Y-20140801D02*
X105347975Y-20140801D01*
X105347975Y-20140801D02*
X105154451Y-20092420D01*
X105154451Y-20092420D02*
X105057689Y-20044039D01*
X105057689Y-20044039D02*
X104960928Y-19947277D01*
X104960928Y-19947277D02*
X104912547Y-19802134D01*
X104912547Y-19802134D02*
X104912547Y-19705372D01*
X104912547Y-19705372D02*
X104960928Y-19560229D01*
X104960928Y-19560229D02*
X105009308Y-19511848D01*
X105009308Y-19511848D02*
X105347975Y-19511848D01*
X105347975Y-19511848D02*
X105347975Y-19705372D01*
X104912547Y-18640991D02*
X105444737Y-18640991D01*
X105444737Y-18640991D02*
X105541499Y-18689372D01*
X105541499Y-18689372D02*
X105589880Y-18786134D01*
X105589880Y-18786134D02*
X105589880Y-18979658D01*
X105589880Y-18979658D02*
X105541499Y-19076420D01*
X104960928Y-18640991D02*
X104912547Y-18737753D01*
X104912547Y-18737753D02*
X104912547Y-18979658D01*
X104912547Y-18979658D02*
X104960928Y-19076420D01*
X104960928Y-19076420D02*
X105057689Y-19124801D01*
X105057689Y-19124801D02*
X105154451Y-19124801D01*
X105154451Y-19124801D02*
X105251213Y-19076420D01*
X105251213Y-19076420D02*
X105299594Y-18979658D01*
X105299594Y-18979658D02*
X105299594Y-18737753D01*
X105299594Y-18737753D02*
X105347975Y-18640991D01*
X104912547Y-18012039D02*
X104960928Y-18108801D01*
X104960928Y-18108801D02*
X105057689Y-18157182D01*
X105057689Y-18157182D02*
X105928547Y-18157182D01*
X104912547Y-17189563D02*
X105444737Y-17189563D01*
X105444737Y-17189563D02*
X105541499Y-17237944D01*
X105541499Y-17237944D02*
X105589880Y-17334706D01*
X105589880Y-17334706D02*
X105589880Y-17528230D01*
X105589880Y-17528230D02*
X105541499Y-17624992D01*
X104960928Y-17189563D02*
X104912547Y-17286325D01*
X104912547Y-17286325D02*
X104912547Y-17528230D01*
X104912547Y-17528230D02*
X104960928Y-17624992D01*
X104960928Y-17624992D02*
X105057689Y-17673373D01*
X105057689Y-17673373D02*
X105154451Y-17673373D01*
X105154451Y-17673373D02*
X105251213Y-17624992D01*
X105251213Y-17624992D02*
X105299594Y-17528230D01*
X105299594Y-17528230D02*
X105299594Y-17286325D01*
X105299594Y-17286325D02*
X105347975Y-17189563D01*
X104912547Y-16705754D02*
X105928547Y-16705754D01*
X105299594Y-16608992D02*
X104912547Y-16318706D01*
X105589880Y-16318706D02*
X105202832Y-16705754D01*
X105009308Y-14528611D02*
X104960928Y-14576992D01*
X104960928Y-14576992D02*
X104912547Y-14722135D01*
X104912547Y-14722135D02*
X104912547Y-14818897D01*
X104912547Y-14818897D02*
X104960928Y-14964040D01*
X104960928Y-14964040D02*
X105057689Y-15060802D01*
X105057689Y-15060802D02*
X105154451Y-15109183D01*
X105154451Y-15109183D02*
X105347975Y-15157564D01*
X105347975Y-15157564D02*
X105493118Y-15157564D01*
X105493118Y-15157564D02*
X105686642Y-15109183D01*
X105686642Y-15109183D02*
X105783404Y-15060802D01*
X105783404Y-15060802D02*
X105880166Y-14964040D01*
X105880166Y-14964040D02*
X105928547Y-14818897D01*
X105928547Y-14818897D02*
X105928547Y-14722135D01*
X105928547Y-14722135D02*
X105880166Y-14576992D01*
X105880166Y-14576992D02*
X105831785Y-14528611D01*
X104912547Y-13948040D02*
X104960928Y-14044802D01*
X104960928Y-14044802D02*
X105009308Y-14093183D01*
X105009308Y-14093183D02*
X105106070Y-14141564D01*
X105106070Y-14141564D02*
X105396356Y-14141564D01*
X105396356Y-14141564D02*
X105493118Y-14093183D01*
X105493118Y-14093183D02*
X105541499Y-14044802D01*
X105541499Y-14044802D02*
X105589880Y-13948040D01*
X105589880Y-13948040D02*
X105589880Y-13802897D01*
X105589880Y-13802897D02*
X105541499Y-13706135D01*
X105541499Y-13706135D02*
X105493118Y-13657754D01*
X105493118Y-13657754D02*
X105396356Y-13609373D01*
X105396356Y-13609373D02*
X105106070Y-13609373D01*
X105106070Y-13609373D02*
X105009308Y-13657754D01*
X105009308Y-13657754D02*
X104960928Y-13706135D01*
X104960928Y-13706135D02*
X104912547Y-13802897D01*
X104912547Y-13802897D02*
X104912547Y-13948040D01*
X105589880Y-13173945D02*
X104912547Y-13173945D01*
X105493118Y-13173945D02*
X105541499Y-13125564D01*
X105541499Y-13125564D02*
X105589880Y-13028802D01*
X105589880Y-13028802D02*
X105589880Y-12883659D01*
X105589880Y-12883659D02*
X105541499Y-12786897D01*
X105541499Y-12786897D02*
X105444737Y-12738516D01*
X105444737Y-12738516D02*
X104912547Y-12738516D01*
X104960928Y-12303088D02*
X104912547Y-12206326D01*
X104912547Y-12206326D02*
X104912547Y-12012802D01*
X104912547Y-12012802D02*
X104960928Y-11916040D01*
X104960928Y-11916040D02*
X105057689Y-11867659D01*
X105057689Y-11867659D02*
X105106070Y-11867659D01*
X105106070Y-11867659D02*
X105202832Y-11916040D01*
X105202832Y-11916040D02*
X105251213Y-12012802D01*
X105251213Y-12012802D02*
X105251213Y-12157945D01*
X105251213Y-12157945D02*
X105299594Y-12254707D01*
X105299594Y-12254707D02*
X105396356Y-12303088D01*
X105396356Y-12303088D02*
X105444737Y-12303088D01*
X105444737Y-12303088D02*
X105541499Y-12254707D01*
X105541499Y-12254707D02*
X105589880Y-12157945D01*
X105589880Y-12157945D02*
X105589880Y-12012802D01*
X105589880Y-12012802D02*
X105541499Y-11916040D01*
X105589880Y-10996802D02*
X104912547Y-10996802D01*
X105589880Y-11432231D02*
X105057689Y-11432231D01*
X105057689Y-11432231D02*
X104960928Y-11383850D01*
X104960928Y-11383850D02*
X104912547Y-11287088D01*
X104912547Y-11287088D02*
X104912547Y-11141945D01*
X104912547Y-11141945D02*
X104960928Y-11045183D01*
X104960928Y-11045183D02*
X105009308Y-10996802D01*
X104912547Y-10367850D02*
X104960928Y-10464612D01*
X104960928Y-10464612D02*
X105057689Y-10512993D01*
X105057689Y-10512993D02*
X105928547Y-10512993D01*
X105589880Y-10125946D02*
X105589880Y-9738898D01*
X105928547Y-9980803D02*
X105057689Y-9980803D01*
X105057689Y-9980803D02*
X104960928Y-9932422D01*
X104960928Y-9932422D02*
X104912547Y-9835660D01*
X104912547Y-9835660D02*
X104912547Y-9738898D01*
X104912547Y-9400232D02*
X105589880Y-9400232D01*
X105928547Y-9400232D02*
X105880166Y-9448613D01*
X105880166Y-9448613D02*
X105831785Y-9400232D01*
X105831785Y-9400232D02*
X105880166Y-9351851D01*
X105880166Y-9351851D02*
X105928547Y-9400232D01*
X105928547Y-9400232D02*
X105831785Y-9400232D01*
X105589880Y-8916422D02*
X104912547Y-8916422D01*
X105493118Y-8916422D02*
X105541499Y-8868041D01*
X105541499Y-8868041D02*
X105589880Y-8771279D01*
X105589880Y-8771279D02*
X105589880Y-8626136D01*
X105589880Y-8626136D02*
X105541499Y-8529374D01*
X105541499Y-8529374D02*
X105444737Y-8480993D01*
X105444737Y-8480993D02*
X104912547Y-8480993D01*
X105589880Y-7561755D02*
X104767404Y-7561755D01*
X104767404Y-7561755D02*
X104670642Y-7610136D01*
X104670642Y-7610136D02*
X104622261Y-7658517D01*
X104622261Y-7658517D02*
X104573880Y-7755279D01*
X104573880Y-7755279D02*
X104573880Y-7900422D01*
X104573880Y-7900422D02*
X104622261Y-7997184D01*
X104960928Y-7561755D02*
X104912547Y-7658517D01*
X104912547Y-7658517D02*
X104912547Y-7852041D01*
X104912547Y-7852041D02*
X104960928Y-7948803D01*
X104960928Y-7948803D02*
X105009308Y-7997184D01*
X105009308Y-7997184D02*
X105106070Y-8045565D01*
X105106070Y-8045565D02*
X105396356Y-8045565D01*
X105396356Y-8045565D02*
X105493118Y-7997184D01*
X105493118Y-7997184D02*
X105541499Y-7948803D01*
X105541499Y-7948803D02*
X105589880Y-7852041D01*
X105589880Y-7852041D02*
X105589880Y-7658517D01*
X105589880Y-7658517D02*
X105541499Y-7561755D01*
X104960928Y-7029565D02*
X104912547Y-7029565D01*
X104912547Y-7029565D02*
X104815785Y-7077946D01*
X104815785Y-7077946D02*
X104767404Y-7126327D01*
X104912547Y-5820041D02*
X105928547Y-5820041D01*
X105589880Y-5336231D02*
X104912547Y-5336231D01*
X105493118Y-5336231D02*
X105541499Y-5287850D01*
X105541499Y-5287850D02*
X105589880Y-5191088D01*
X105589880Y-5191088D02*
X105589880Y-5045945D01*
X105589880Y-5045945D02*
X105541499Y-4949183D01*
X105541499Y-4949183D02*
X105444737Y-4900802D01*
X105444737Y-4900802D02*
X104912547Y-4900802D01*
X104960928Y-3981564D02*
X104912547Y-4078326D01*
X104912547Y-4078326D02*
X104912547Y-4271850D01*
X104912547Y-4271850D02*
X104960928Y-4368612D01*
X104960928Y-4368612D02*
X105009308Y-4416993D01*
X105009308Y-4416993D02*
X105106070Y-4465374D01*
X105106070Y-4465374D02*
X105396356Y-4465374D01*
X105396356Y-4465374D02*
X105493118Y-4416993D01*
X105493118Y-4416993D02*
X105541499Y-4368612D01*
X105541499Y-4368612D02*
X105589880Y-4271850D01*
X105589880Y-4271850D02*
X105589880Y-4078326D01*
X105589880Y-4078326D02*
X105541499Y-3981564D01*
X105009308Y-3546136D02*
X104960928Y-3497755D01*
X104960928Y-3497755D02*
X104912547Y-3546136D01*
X104912547Y-3546136D02*
X104960928Y-3594517D01*
X104960928Y-3594517D02*
X105009308Y-3546136D01*
X105009308Y-3546136D02*
X104912547Y-3546136D01*
D12*
X97790000Y0D03*
X97790000Y-2540000D03*
X97790000Y-5080000D03*
X97790000Y-7620000D03*
X97790000Y-10160000D03*
X97790000Y-12700000D03*
X97790000Y-15240000D03*
X97790000Y-17780000D03*
X97790000Y-20320000D03*
X97790000Y-22860000D03*
X97790000Y-25400000D03*
X97790000Y-27940000D03*
X97790000Y-30480000D03*
X97790000Y-33020000D03*
X113030000Y-33020000D03*
X113030000Y-30480000D03*
X113030000Y-27940000D03*
X113030000Y-25400000D03*
X113030000Y-22860000D03*
X113030000Y-20320000D03*
X113030000Y-17780000D03*
X113030000Y-15240000D03*
X113030000Y-12700000D03*
X113030000Y-10160000D03*
X113030000Y-7620000D03*
X113030000Y-5080000D03*
X113030000Y-2540000D03*
X113030000Y0D03*
D13*
X101600000Y0D03*
D14*
X101600000Y-2540000D03*
X101600000Y-5080000D03*
X101600000Y-7620000D03*
X101600000Y-10160000D03*
X101600000Y-12700000D03*
X101600000Y-15240000D03*
X101600000Y-17780000D03*
X101600000Y-20320000D03*
X101600000Y-22860000D03*
X101600000Y-25400000D03*
X101600000Y-27940000D03*
X101600000Y-30480000D03*
X101600000Y-33020000D03*
D13*
X109220000Y0D03*
D14*
X109220000Y-2540000D03*
X109220000Y-5080000D03*
X109220000Y-7620000D03*
X109220000Y-10160000D03*
X109220000Y-12700000D03*
X109220000Y-15240000D03*
X109220000Y-17780000D03*
X109220000Y-20320000D03*
X109220000Y-22860000D03*
X109220000Y-25400000D03*
X109220000Y-27940000D03*
X109220000Y-30480000D03*
X109220000Y-33020000D03*
M02*
