G04 #@! TF.GenerationSoftware,KiCad,Pcbnew,8.0.8*
G04 #@! TF.CreationDate,2025-06-20T13:46:13-04:00*
G04 #@! TF.ProjectId,ZiffAdapter,5a696666-4164-4617-9074-65722e6b6963,rev?*
G04 #@! TF.SameCoordinates,Original*
G04 #@! TF.FileFunction,Legend,Top*
G04 #@! TF.FilePolarity,Positive*
%FSLAX46Y46*%
G04 Gerber Fmt 4.6, Leading zero omitted, Abs format (unit mm)*
G04 Created by KiCad (PCBNEW 8.0.8) date 2025-06-20 13:46:13*
%MOMM*%
%LPD*%
G01*
G04 APERTURE LIST*
G04 Aperture macros list*
%AMRoundRect*
0 Rectangle with rounded corners*
0 $1 Rounding radius*
0 $2 $3 $4 $5 $6 $7 $8 $9 X,Y pos of 4 corners*
0 Add a 4 corners polygon primitive as box body*
4,1,4,$2,$3,$4,$5,$6,$7,$8,$9,$2,$3,0*
0 Add four circle primitives for the rounded corners*
1,1,$1+$1,$2,$3*
1,1,$1+$1,$4,$5*
1,1,$1+$1,$6,$7*
1,1,$1+$1,$8,$9*
0 Add four rect primitives between the rounded corners*
20,1,$1+$1,$2,$3,$4,$5,0*
20,1,$1+$1,$4,$5,$6,$7,0*
20,1,$1+$1,$6,$7,$8,$9,0*
20,1,$1+$1,$8,$9,$2,$3,0*%
G04 Aperture macros list end*
%ADD10C,0.100000*%
%ADD11C,0.150000*%
%ADD12C,0.120000*%
%ADD13O,3.076000X1.576000*%
%ADD14RoundRect,0.038000X-0.850000X-0.850000X0.850000X-0.850000X0.850000X0.850000X-0.850000X0.850000X0*%
%ADD15O,1.776000X1.776000*%
G04 APERTURE END LIST*
D10*
X104917419Y-31541353D02*
X104917419Y-30874687D01*
X104917419Y-30874687D02*
X105917419Y-31541353D01*
X105917419Y-31541353D02*
X105917419Y-30874687D01*
X105917419Y-30493734D02*
X104917419Y-30493734D01*
X105393609Y-29684211D02*
X105393609Y-30017544D01*
X105917419Y-30017544D02*
X104917419Y-30017544D01*
X104917419Y-30017544D02*
X104917419Y-29541354D01*
X105393609Y-28827068D02*
X105393609Y-29160401D01*
X105917419Y-29160401D02*
X104917419Y-29160401D01*
X104917419Y-29160401D02*
X104917419Y-28684211D01*
X105012657Y-27588972D02*
X104965038Y-27541353D01*
X104965038Y-27541353D02*
X104917419Y-27446115D01*
X104917419Y-27446115D02*
X104917419Y-27208020D01*
X104917419Y-27208020D02*
X104965038Y-27112782D01*
X104965038Y-27112782D02*
X105012657Y-27065163D01*
X105012657Y-27065163D02*
X105107895Y-27017544D01*
X105107895Y-27017544D02*
X105203133Y-27017544D01*
X105203133Y-27017544D02*
X105345990Y-27065163D01*
X105345990Y-27065163D02*
X105917419Y-27636591D01*
X105917419Y-27636591D02*
X105917419Y-27017544D01*
X105917419Y-26684210D02*
X105250752Y-26160401D01*
X105250752Y-26684210D02*
X105917419Y-26160401D01*
X105917419Y-25255639D02*
X105917419Y-25827067D01*
X105917419Y-25541353D02*
X104917419Y-25541353D01*
X104917419Y-25541353D02*
X105060276Y-25636591D01*
X105060276Y-25636591D02*
X105155514Y-25731829D01*
X105155514Y-25731829D02*
X105203133Y-25827067D01*
X105250752Y-24398496D02*
X105917419Y-24398496D01*
X104869800Y-24636591D02*
X105584085Y-24874686D01*
X105584085Y-24874686D02*
X105584085Y-24255639D01*
X105250752Y-23255638D02*
X105250752Y-22874686D01*
X104917419Y-23112781D02*
X105774561Y-23112781D01*
X105774561Y-23112781D02*
X105869800Y-23065162D01*
X105869800Y-23065162D02*
X105917419Y-22969924D01*
X105917419Y-22969924D02*
X105917419Y-22874686D01*
X105917419Y-22398495D02*
X105869800Y-22493733D01*
X105869800Y-22493733D02*
X105822180Y-22541352D01*
X105822180Y-22541352D02*
X105726942Y-22588971D01*
X105726942Y-22588971D02*
X105441228Y-22588971D01*
X105441228Y-22588971D02*
X105345990Y-22541352D01*
X105345990Y-22541352D02*
X105298371Y-22493733D01*
X105298371Y-22493733D02*
X105250752Y-22398495D01*
X105250752Y-22398495D02*
X105250752Y-22255638D01*
X105250752Y-22255638D02*
X105298371Y-22160400D01*
X105298371Y-22160400D02*
X105345990Y-22112781D01*
X105345990Y-22112781D02*
X105441228Y-22065162D01*
X105441228Y-22065162D02*
X105726942Y-22065162D01*
X105726942Y-22065162D02*
X105822180Y-22112781D01*
X105822180Y-22112781D02*
X105869800Y-22160400D01*
X105869800Y-22160400D02*
X105917419Y-22255638D01*
X105917419Y-22255638D02*
X105917419Y-22398495D01*
X105393609Y-20541352D02*
X105441228Y-20398495D01*
X105441228Y-20398495D02*
X105488847Y-20350876D01*
X105488847Y-20350876D02*
X105584085Y-20303257D01*
X105584085Y-20303257D02*
X105726942Y-20303257D01*
X105726942Y-20303257D02*
X105822180Y-20350876D01*
X105822180Y-20350876D02*
X105869800Y-20398495D01*
X105869800Y-20398495D02*
X105917419Y-20493733D01*
X105917419Y-20493733D02*
X105917419Y-20874685D01*
X105917419Y-20874685D02*
X104917419Y-20874685D01*
X104917419Y-20874685D02*
X104917419Y-20541352D01*
X104917419Y-20541352D02*
X104965038Y-20446114D01*
X104965038Y-20446114D02*
X105012657Y-20398495D01*
X105012657Y-20398495D02*
X105107895Y-20350876D01*
X105107895Y-20350876D02*
X105203133Y-20350876D01*
X105203133Y-20350876D02*
X105298371Y-20398495D01*
X105298371Y-20398495D02*
X105345990Y-20446114D01*
X105345990Y-20446114D02*
X105393609Y-20541352D01*
X105393609Y-20541352D02*
X105393609Y-20874685D01*
X105917419Y-19874685D02*
X105250752Y-19874685D01*
X105441228Y-19874685D02*
X105345990Y-19827066D01*
X105345990Y-19827066D02*
X105298371Y-19779447D01*
X105298371Y-19779447D02*
X105250752Y-19684209D01*
X105250752Y-19684209D02*
X105250752Y-19588971D01*
X105869800Y-18874685D02*
X105917419Y-18969923D01*
X105917419Y-18969923D02*
X105917419Y-19160399D01*
X105917419Y-19160399D02*
X105869800Y-19255637D01*
X105869800Y-19255637D02*
X105774561Y-19303256D01*
X105774561Y-19303256D02*
X105393609Y-19303256D01*
X105393609Y-19303256D02*
X105298371Y-19255637D01*
X105298371Y-19255637D02*
X105250752Y-19160399D01*
X105250752Y-19160399D02*
X105250752Y-18969923D01*
X105250752Y-18969923D02*
X105298371Y-18874685D01*
X105298371Y-18874685D02*
X105393609Y-18827066D01*
X105393609Y-18827066D02*
X105488847Y-18827066D01*
X105488847Y-18827066D02*
X105584085Y-19303256D01*
X105917419Y-17969923D02*
X105393609Y-17969923D01*
X105393609Y-17969923D02*
X105298371Y-18017542D01*
X105298371Y-18017542D02*
X105250752Y-18112780D01*
X105250752Y-18112780D02*
X105250752Y-18303256D01*
X105250752Y-18303256D02*
X105298371Y-18398494D01*
X105869800Y-17969923D02*
X105917419Y-18065161D01*
X105917419Y-18065161D02*
X105917419Y-18303256D01*
X105917419Y-18303256D02*
X105869800Y-18398494D01*
X105869800Y-18398494D02*
X105774561Y-18446113D01*
X105774561Y-18446113D02*
X105679323Y-18446113D01*
X105679323Y-18446113D02*
X105584085Y-18398494D01*
X105584085Y-18398494D02*
X105536466Y-18303256D01*
X105536466Y-18303256D02*
X105536466Y-18065161D01*
X105536466Y-18065161D02*
X105488847Y-17969923D01*
X105917419Y-17065161D02*
X104917419Y-17065161D01*
X105869800Y-17065161D02*
X105917419Y-17160399D01*
X105917419Y-17160399D02*
X105917419Y-17350875D01*
X105917419Y-17350875D02*
X105869800Y-17446113D01*
X105869800Y-17446113D02*
X105822180Y-17493732D01*
X105822180Y-17493732D02*
X105726942Y-17541351D01*
X105726942Y-17541351D02*
X105441228Y-17541351D01*
X105441228Y-17541351D02*
X105345990Y-17493732D01*
X105345990Y-17493732D02*
X105298371Y-17446113D01*
X105298371Y-17446113D02*
X105250752Y-17350875D01*
X105250752Y-17350875D02*
X105250752Y-17160399D01*
X105250752Y-17160399D02*
X105298371Y-17065161D01*
X105917419Y-16588970D02*
X104917419Y-16588970D01*
X105298371Y-16588970D02*
X105250752Y-16493732D01*
X105250752Y-16493732D02*
X105250752Y-16303256D01*
X105250752Y-16303256D02*
X105298371Y-16208018D01*
X105298371Y-16208018D02*
X105345990Y-16160399D01*
X105345990Y-16160399D02*
X105441228Y-16112780D01*
X105441228Y-16112780D02*
X105726942Y-16112780D01*
X105726942Y-16112780D02*
X105822180Y-16160399D01*
X105822180Y-16160399D02*
X105869800Y-16208018D01*
X105869800Y-16208018D02*
X105917419Y-16303256D01*
X105917419Y-16303256D02*
X105917419Y-16493732D01*
X105917419Y-16493732D02*
X105869800Y-16588970D01*
X105917419Y-15541351D02*
X105869800Y-15636589D01*
X105869800Y-15636589D02*
X105822180Y-15684208D01*
X105822180Y-15684208D02*
X105726942Y-15731827D01*
X105726942Y-15731827D02*
X105441228Y-15731827D01*
X105441228Y-15731827D02*
X105345990Y-15684208D01*
X105345990Y-15684208D02*
X105298371Y-15636589D01*
X105298371Y-15636589D02*
X105250752Y-15541351D01*
X105250752Y-15541351D02*
X105250752Y-15398494D01*
X105250752Y-15398494D02*
X105298371Y-15303256D01*
X105298371Y-15303256D02*
X105345990Y-15255637D01*
X105345990Y-15255637D02*
X105441228Y-15208018D01*
X105441228Y-15208018D02*
X105726942Y-15208018D01*
X105726942Y-15208018D02*
X105822180Y-15255637D01*
X105822180Y-15255637D02*
X105869800Y-15303256D01*
X105869800Y-15303256D02*
X105917419Y-15398494D01*
X105917419Y-15398494D02*
X105917419Y-15541351D01*
X105917419Y-14350875D02*
X105393609Y-14350875D01*
X105393609Y-14350875D02*
X105298371Y-14398494D01*
X105298371Y-14398494D02*
X105250752Y-14493732D01*
X105250752Y-14493732D02*
X105250752Y-14684208D01*
X105250752Y-14684208D02*
X105298371Y-14779446D01*
X105869800Y-14350875D02*
X105917419Y-14446113D01*
X105917419Y-14446113D02*
X105917419Y-14684208D01*
X105917419Y-14684208D02*
X105869800Y-14779446D01*
X105869800Y-14779446D02*
X105774561Y-14827065D01*
X105774561Y-14827065D02*
X105679323Y-14827065D01*
X105679323Y-14827065D02*
X105584085Y-14779446D01*
X105584085Y-14779446D02*
X105536466Y-14684208D01*
X105536466Y-14684208D02*
X105536466Y-14446113D01*
X105536466Y-14446113D02*
X105488847Y-14350875D01*
X105917419Y-13874684D02*
X105250752Y-13874684D01*
X105441228Y-13874684D02*
X105345990Y-13827065D01*
X105345990Y-13827065D02*
X105298371Y-13779446D01*
X105298371Y-13779446D02*
X105250752Y-13684208D01*
X105250752Y-13684208D02*
X105250752Y-13588970D01*
X105917419Y-12827065D02*
X104917419Y-12827065D01*
X105869800Y-12827065D02*
X105917419Y-12922303D01*
X105917419Y-12922303D02*
X105917419Y-13112779D01*
X105917419Y-13112779D02*
X105869800Y-13208017D01*
X105869800Y-13208017D02*
X105822180Y-13255636D01*
X105822180Y-13255636D02*
X105726942Y-13303255D01*
X105726942Y-13303255D02*
X105441228Y-13303255D01*
X105441228Y-13303255D02*
X105345990Y-13255636D01*
X105345990Y-13255636D02*
X105298371Y-13208017D01*
X105298371Y-13208017D02*
X105250752Y-13112779D01*
X105250752Y-13112779D02*
X105250752Y-12922303D01*
X105250752Y-12922303D02*
X105298371Y-12827065D01*
X105917419Y-11160398D02*
X105393609Y-11160398D01*
X105393609Y-11160398D02*
X105298371Y-11208017D01*
X105298371Y-11208017D02*
X105250752Y-11303255D01*
X105250752Y-11303255D02*
X105250752Y-11493731D01*
X105250752Y-11493731D02*
X105298371Y-11588969D01*
X105869800Y-11160398D02*
X105917419Y-11255636D01*
X105917419Y-11255636D02*
X105917419Y-11493731D01*
X105917419Y-11493731D02*
X105869800Y-11588969D01*
X105869800Y-11588969D02*
X105774561Y-11636588D01*
X105774561Y-11636588D02*
X105679323Y-11636588D01*
X105679323Y-11636588D02*
X105584085Y-11588969D01*
X105584085Y-11588969D02*
X105536466Y-11493731D01*
X105536466Y-11493731D02*
X105536466Y-11255636D01*
X105536466Y-11255636D02*
X105488847Y-11160398D01*
X105917419Y-10255636D02*
X104917419Y-10255636D01*
X105869800Y-10255636D02*
X105917419Y-10350874D01*
X105917419Y-10350874D02*
X105917419Y-10541350D01*
X105917419Y-10541350D02*
X105869800Y-10636588D01*
X105869800Y-10636588D02*
X105822180Y-10684207D01*
X105822180Y-10684207D02*
X105726942Y-10731826D01*
X105726942Y-10731826D02*
X105441228Y-10731826D01*
X105441228Y-10731826D02*
X105345990Y-10684207D01*
X105345990Y-10684207D02*
X105298371Y-10636588D01*
X105298371Y-10636588D02*
X105250752Y-10541350D01*
X105250752Y-10541350D02*
X105250752Y-10350874D01*
X105250752Y-10350874D02*
X105298371Y-10255636D01*
X105917419Y-9350874D02*
X105393609Y-9350874D01*
X105393609Y-9350874D02*
X105298371Y-9398493D01*
X105298371Y-9398493D02*
X105250752Y-9493731D01*
X105250752Y-9493731D02*
X105250752Y-9684207D01*
X105250752Y-9684207D02*
X105298371Y-9779445D01*
X105869800Y-9350874D02*
X105917419Y-9446112D01*
X105917419Y-9446112D02*
X105917419Y-9684207D01*
X105917419Y-9684207D02*
X105869800Y-9779445D01*
X105869800Y-9779445D02*
X105774561Y-9827064D01*
X105774561Y-9827064D02*
X105679323Y-9827064D01*
X105679323Y-9827064D02*
X105584085Y-9779445D01*
X105584085Y-9779445D02*
X105536466Y-9684207D01*
X105536466Y-9684207D02*
X105536466Y-9446112D01*
X105536466Y-9446112D02*
X105488847Y-9350874D01*
X105250752Y-8874683D02*
X106250752Y-8874683D01*
X105298371Y-8874683D02*
X105250752Y-8779445D01*
X105250752Y-8779445D02*
X105250752Y-8588969D01*
X105250752Y-8588969D02*
X105298371Y-8493731D01*
X105298371Y-8493731D02*
X105345990Y-8446112D01*
X105345990Y-8446112D02*
X105441228Y-8398493D01*
X105441228Y-8398493D02*
X105726942Y-8398493D01*
X105726942Y-8398493D02*
X105822180Y-8446112D01*
X105822180Y-8446112D02*
X105869800Y-8493731D01*
X105869800Y-8493731D02*
X105917419Y-8588969D01*
X105917419Y-8588969D02*
X105917419Y-8779445D01*
X105917419Y-8779445D02*
X105869800Y-8874683D01*
X105250752Y-8112778D02*
X105250752Y-7731826D01*
X104917419Y-7969921D02*
X105774561Y-7969921D01*
X105774561Y-7969921D02*
X105869800Y-7922302D01*
X105869800Y-7922302D02*
X105917419Y-7827064D01*
X105917419Y-7827064D02*
X105917419Y-7731826D01*
X105869800Y-7017540D02*
X105917419Y-7112778D01*
X105917419Y-7112778D02*
X105917419Y-7303254D01*
X105917419Y-7303254D02*
X105869800Y-7398492D01*
X105869800Y-7398492D02*
X105774561Y-7446111D01*
X105774561Y-7446111D02*
X105393609Y-7446111D01*
X105393609Y-7446111D02*
X105298371Y-7398492D01*
X105298371Y-7398492D02*
X105250752Y-7303254D01*
X105250752Y-7303254D02*
X105250752Y-7112778D01*
X105250752Y-7112778D02*
X105298371Y-7017540D01*
X105298371Y-7017540D02*
X105393609Y-6969921D01*
X105393609Y-6969921D02*
X105488847Y-6969921D01*
X105488847Y-6969921D02*
X105584085Y-7446111D01*
X105917419Y-6541349D02*
X105250752Y-6541349D01*
X105441228Y-6541349D02*
X105345990Y-6493730D01*
X105345990Y-6493730D02*
X105298371Y-6446111D01*
X105298371Y-6446111D02*
X105250752Y-6350873D01*
X105250752Y-6350873D02*
X105250752Y-6255635D01*
X105822180Y-5922301D02*
X105869800Y-5874682D01*
X105869800Y-5874682D02*
X105917419Y-5922301D01*
X105917419Y-5922301D02*
X105869800Y-5969920D01*
X105869800Y-5969920D02*
X105822180Y-5922301D01*
X105822180Y-5922301D02*
X105917419Y-5922301D01*
X104917419Y-4065158D02*
X105917419Y-3731825D01*
X105917419Y-3731825D02*
X104917419Y-3398492D01*
X105917419Y-2541349D02*
X105917419Y-3112777D01*
X105917419Y-2827063D02*
X104917419Y-2827063D01*
X104917419Y-2827063D02*
X105060276Y-2922301D01*
X105060276Y-2922301D02*
X105155514Y-3017539D01*
X105155514Y-3017539D02*
X105203133Y-3112777D01*
X105822180Y-2112777D02*
X105869800Y-2065158D01*
X105869800Y-2065158D02*
X105917419Y-2112777D01*
X105917419Y-2112777D02*
X105869800Y-2160396D01*
X105869800Y-2160396D02*
X105822180Y-2112777D01*
X105822180Y-2112777D02*
X105917419Y-2112777D01*
X105012657Y-1684206D02*
X104965038Y-1636587D01*
X104965038Y-1636587D02*
X104917419Y-1541349D01*
X104917419Y-1541349D02*
X104917419Y-1303254D01*
X104917419Y-1303254D02*
X104965038Y-1208016D01*
X104965038Y-1208016D02*
X105012657Y-1160397D01*
X105012657Y-1160397D02*
X105107895Y-1112778D01*
X105107895Y-1112778D02*
X105203133Y-1112778D01*
X105203133Y-1112778D02*
X105345990Y-1160397D01*
X105345990Y-1160397D02*
X105917419Y-1731825D01*
X105917419Y-1731825D02*
X105917419Y-1112778D01*
D11*
X105076666Y5935180D02*
X105076666Y5220895D01*
X105076666Y5220895D02*
X105029047Y5078038D01*
X105029047Y5078038D02*
X104933809Y4982800D01*
X104933809Y4982800D02*
X104790952Y4935180D01*
X104790952Y4935180D02*
X104695714Y4935180D01*
X106076666Y4935180D02*
X105505238Y4935180D01*
X105790952Y4935180D02*
X105790952Y5935180D01*
X105790952Y5935180D02*
X105695714Y5792323D01*
X105695714Y5792323D02*
X105600476Y5697085D01*
X105600476Y5697085D02*
X105505238Y5649466D01*
X101266666Y2875180D02*
X101266666Y2160895D01*
X101266666Y2160895D02*
X101219047Y2018038D01*
X101219047Y2018038D02*
X101123809Y1922800D01*
X101123809Y1922800D02*
X100980952Y1875180D01*
X100980952Y1875180D02*
X100885714Y1875180D01*
X101695238Y2779942D02*
X101742857Y2827561D01*
X101742857Y2827561D02*
X101838095Y2875180D01*
X101838095Y2875180D02*
X102076190Y2875180D01*
X102076190Y2875180D02*
X102171428Y2827561D01*
X102171428Y2827561D02*
X102219047Y2779942D01*
X102219047Y2779942D02*
X102266666Y2684704D01*
X102266666Y2684704D02*
X102266666Y2589466D01*
X102266666Y2589466D02*
X102219047Y2446609D01*
X102219047Y2446609D02*
X101647619Y1875180D01*
X101647619Y1875180D02*
X102266666Y1875180D01*
X108886666Y2875180D02*
X108886666Y2160895D01*
X108886666Y2160895D02*
X108839047Y2018038D01*
X108839047Y2018038D02*
X108743809Y1922800D01*
X108743809Y1922800D02*
X108600952Y1875180D01*
X108600952Y1875180D02*
X108505714Y1875180D01*
X109267619Y2875180D02*
X109886666Y2875180D01*
X109886666Y2875180D02*
X109553333Y2494228D01*
X109553333Y2494228D02*
X109696190Y2494228D01*
X109696190Y2494228D02*
X109791428Y2446609D01*
X109791428Y2446609D02*
X109839047Y2398990D01*
X109839047Y2398990D02*
X109886666Y2303752D01*
X109886666Y2303752D02*
X109886666Y2065657D01*
X109886666Y2065657D02*
X109839047Y1970419D01*
X109839047Y1970419D02*
X109791428Y1922800D01*
X109791428Y1922800D02*
X109696190Y1875180D01*
X109696190Y1875180D02*
X109410476Y1875180D01*
X109410476Y1875180D02*
X109315238Y1922800D01*
X109315238Y1922800D02*
X109267619Y1970419D01*
D12*
X94310000Y7140000D02*
X94310000Y-42910000D01*
X94310000Y-42910000D02*
X116610000Y-42910000D01*
X101170001Y7150000D02*
X94310000Y7150000D01*
X101170001Y6790000D02*
X101170001Y7150000D01*
X109650000Y7150000D02*
X109650000Y6790000D01*
X109650000Y6790000D02*
X101170001Y6790000D01*
X116610000Y-42910000D02*
X116610000Y7140000D01*
X116610000Y7150000D02*
X109650000Y7150000D01*
X100270000Y1330000D02*
X101600000Y1330000D01*
X100270000Y0D02*
X100270000Y1330000D01*
X100270000Y-1270000D02*
X100270000Y-34350000D01*
X100270000Y-1270000D02*
X102930000Y-1270000D01*
X100270000Y-34350000D02*
X102930000Y-34350000D01*
X102930000Y-1270000D02*
X102930000Y-34350000D01*
X107890000Y1330000D02*
X109220000Y1330000D01*
X107890000Y0D02*
X107890000Y1330000D01*
X107890000Y-1270000D02*
X107890000Y-34350000D01*
X107890000Y-1270000D02*
X110550000Y-1270000D01*
X107890000Y-34350000D02*
X110550000Y-34350000D01*
X110550000Y-1270000D02*
X110550000Y-34350000D01*
%LPC*%
D13*
X97790000Y0D03*
X97790000Y-2540000D03*
X97790000Y-5080000D03*
X97790000Y-7620000D03*
X97790000Y-10160000D03*
X97790000Y-12700000D03*
X97790000Y-15240000D03*
X97790000Y-17780000D03*
X97790000Y-20320000D03*
X97790000Y-22860000D03*
X97790000Y-25400000D03*
X97790000Y-27940000D03*
X97790000Y-30480000D03*
X97790000Y-33020000D03*
X113030000Y-33020000D03*
X113030000Y-30480000D03*
X113030000Y-27940000D03*
X113030000Y-25400000D03*
X113030000Y-22860000D03*
X113030000Y-20320000D03*
X113030000Y-17780000D03*
X113030000Y-15240000D03*
X113030000Y-12700000D03*
X113030000Y-10160000D03*
X113030000Y-7620000D03*
X113030000Y-5080000D03*
X113030000Y-2540000D03*
X113030000Y0D03*
D14*
X101600000Y0D03*
D15*
X101600000Y-2540000D03*
X101600000Y-5080000D03*
X101600000Y-7620000D03*
X101600000Y-10160000D03*
X101600000Y-12700000D03*
X101600000Y-15240000D03*
X101600000Y-17780000D03*
X101600000Y-20320000D03*
X101600000Y-22860000D03*
X101600000Y-25400000D03*
X101600000Y-27940000D03*
X101600000Y-30480000D03*
X101600000Y-33020000D03*
D14*
X109220000Y0D03*
D15*
X109220000Y-2540000D03*
X109220000Y-5080000D03*
X109220000Y-7620000D03*
X109220000Y-10160000D03*
X109220000Y-12700000D03*
X109220000Y-15240000D03*
X109220000Y-17780000D03*
X109220000Y-20320000D03*
X109220000Y-22860000D03*
X109220000Y-25400000D03*
X109220000Y-27940000D03*
X109220000Y-30480000D03*
X109220000Y-33020000D03*
%LPD*%
M02*
