%TF.GenerationSoftware,KiCad,Pcbnew,8.0.8*%
%TF.CreationDate,2025-06-20T13:46:22-04:00*%
%TF.ProjectId,ZiffAdapter,5a696666-4164-4617-9074-65722e6b6963,rev?*%
%TF.SameCoordinates,Original*%
%TF.FileFunction,Drillmap*%
%TF.FilePolarity,Positive*%
%FSLAX45Y45*%
G04 Gerber Fmt 4.5, Leading zero omitted, Abs format (unit mm)*
G04 Created by KiCad (PCBNEW 8.0.8) date 2025-06-20 13:46:22*
%MOMM*%
%LPD*%
G01*
G04 APERTURE LIST*
%ADD10C,0.050000*%
%ADD11C,0.200000*%
%ADD12C,0.100000*%
G04 APERTURE END LIST*
D10*
X9424400Y735700D02*
X11650200Y735700D01*
X11650200Y-4292600D01*
X9424400Y-4292600D01*
X9424400Y735700D01*
D11*
D12*
X9729000Y50000D02*
X9829000Y-50000D01*
X9829000Y50000D02*
X9729000Y-50000D01*
X9729000Y-204000D02*
X9829000Y-304000D01*
X9829000Y-204000D02*
X9729000Y-304000D01*
X9729000Y-458000D02*
X9829000Y-558000D01*
X9829000Y-458000D02*
X9729000Y-558000D01*
X9729000Y-712000D02*
X9829000Y-812000D01*
X9829000Y-712000D02*
X9729000Y-812000D01*
X9729000Y-966000D02*
X9829000Y-1066000D01*
X9829000Y-966000D02*
X9729000Y-1066000D01*
X9729000Y-1220000D02*
X9829000Y-1320000D01*
X9829000Y-1220000D02*
X9729000Y-1320000D01*
X9729000Y-1474000D02*
X9829000Y-1574000D01*
X9829000Y-1474000D02*
X9729000Y-1574000D01*
X9729000Y-1728000D02*
X9829000Y-1828000D01*
X9829000Y-1728000D02*
X9729000Y-1828000D01*
X9729000Y-1982000D02*
X9829000Y-2082000D01*
X9829000Y-1982000D02*
X9729000Y-2082000D01*
X9729000Y-2236000D02*
X9829000Y-2336000D01*
X9829000Y-2236000D02*
X9729000Y-2336000D01*
X9729000Y-2490000D02*
X9829000Y-2590000D01*
X9829000Y-2490000D02*
X9729000Y-2590000D01*
X9729000Y-2744000D02*
X9829000Y-2844000D01*
X9829000Y-2744000D02*
X9729000Y-2844000D01*
X9729000Y-2998000D02*
X9829000Y-3098000D01*
X9829000Y-2998000D02*
X9729000Y-3098000D01*
X9729000Y-3252000D02*
X9829000Y-3352000D01*
X9829000Y-3252000D02*
X9729000Y-3352000D01*
X10110000Y50000D02*
X10210000Y-50000D01*
X10210000Y50000D02*
X10110000Y-50000D01*
X10110000Y-204000D02*
X10210000Y-304000D01*
X10210000Y-204000D02*
X10110000Y-304000D01*
X10110000Y-458000D02*
X10210000Y-558000D01*
X10210000Y-458000D02*
X10110000Y-558000D01*
X10110000Y-712000D02*
X10210000Y-812000D01*
X10210000Y-712000D02*
X10110000Y-812000D01*
X10110000Y-966000D02*
X10210000Y-1066000D01*
X10210000Y-966000D02*
X10110000Y-1066000D01*
X10110000Y-1220000D02*
X10210000Y-1320000D01*
X10210000Y-1220000D02*
X10110000Y-1320000D01*
X10110000Y-1474000D02*
X10210000Y-1574000D01*
X10210000Y-1474000D02*
X10110000Y-1574000D01*
X10110000Y-1728000D02*
X10210000Y-1828000D01*
X10210000Y-1728000D02*
X10110000Y-1828000D01*
X10110000Y-1982000D02*
X10210000Y-2082000D01*
X10210000Y-1982000D02*
X10110000Y-2082000D01*
X10110000Y-2236000D02*
X10210000Y-2336000D01*
X10210000Y-2236000D02*
X10110000Y-2336000D01*
X10110000Y-2490000D02*
X10210000Y-2590000D01*
X10210000Y-2490000D02*
X10110000Y-2590000D01*
X10110000Y-2744000D02*
X10210000Y-2844000D01*
X10210000Y-2744000D02*
X10110000Y-2844000D01*
X10110000Y-2998000D02*
X10210000Y-3098000D01*
X10210000Y-2998000D02*
X10110000Y-3098000D01*
X10110000Y-3252000D02*
X10210000Y-3352000D01*
X10210000Y-3252000D02*
X10110000Y-3352000D01*
X10872000Y50000D02*
X10972000Y-50000D01*
X10972000Y50000D02*
X10872000Y-50000D01*
X10872000Y-204000D02*
X10972000Y-304000D01*
X10972000Y-204000D02*
X10872000Y-304000D01*
X10872000Y-458000D02*
X10972000Y-558000D01*
X10972000Y-458000D02*
X10872000Y-558000D01*
X10872000Y-712000D02*
X10972000Y-812000D01*
X10972000Y-712000D02*
X10872000Y-812000D01*
X10872000Y-966000D02*
X10972000Y-1066000D01*
X10972000Y-966000D02*
X10872000Y-1066000D01*
X10872000Y-1220000D02*
X10972000Y-1320000D01*
X10972000Y-1220000D02*
X10872000Y-1320000D01*
X10872000Y-1474000D02*
X10972000Y-1574000D01*
X10972000Y-1474000D02*
X10872000Y-1574000D01*
X10872000Y-1728000D02*
X10972000Y-1828000D01*
X10972000Y-1728000D02*
X10872000Y-1828000D01*
X10872000Y-1982000D02*
X10972000Y-2082000D01*
X10972000Y-1982000D02*
X10872000Y-2082000D01*
X10872000Y-2236000D02*
X10972000Y-2336000D01*
X10972000Y-2236000D02*
X10872000Y-2336000D01*
X10872000Y-2490000D02*
X10972000Y-2590000D01*
X10972000Y-2490000D02*
X10872000Y-2590000D01*
X10872000Y-2744000D02*
X10972000Y-2844000D01*
X10972000Y-2744000D02*
X10872000Y-2844000D01*
X10872000Y-2998000D02*
X10972000Y-3098000D01*
X10972000Y-2998000D02*
X10872000Y-3098000D01*
X10872000Y-3252000D02*
X10972000Y-3352000D01*
X10972000Y-3252000D02*
X10872000Y-3352000D01*
X11253000Y50000D02*
X11353000Y-50000D01*
X11353000Y50000D02*
X11253000Y-50000D01*
X11253000Y-204000D02*
X11353000Y-304000D01*
X11353000Y-204000D02*
X11253000Y-304000D01*
X11253000Y-458000D02*
X11353000Y-558000D01*
X11353000Y-458000D02*
X11253000Y-558000D01*
X11253000Y-712000D02*
X11353000Y-812000D01*
X11353000Y-712000D02*
X11253000Y-812000D01*
X11253000Y-966000D02*
X11353000Y-1066000D01*
X11353000Y-966000D02*
X11253000Y-1066000D01*
X11253000Y-1220000D02*
X11353000Y-1320000D01*
X11353000Y-1220000D02*
X11253000Y-1320000D01*
X11253000Y-1474000D02*
X11353000Y-1574000D01*
X11353000Y-1474000D02*
X11253000Y-1574000D01*
X11253000Y-1728000D02*
X11353000Y-1828000D01*
X11353000Y-1728000D02*
X11253000Y-1828000D01*
X11253000Y-1982000D02*
X11353000Y-2082000D01*
X11353000Y-1982000D02*
X11253000Y-2082000D01*
X11253000Y-2236000D02*
X11353000Y-2336000D01*
X11353000Y-2236000D02*
X11253000Y-2336000D01*
X11253000Y-2490000D02*
X11353000Y-2590000D01*
X11353000Y-2490000D02*
X11253000Y-2590000D01*
X11253000Y-2744000D02*
X11353000Y-2844000D01*
X11353000Y-2744000D02*
X11253000Y-2844000D01*
X11253000Y-2998000D02*
X11353000Y-3098000D01*
X11353000Y-2998000D02*
X11253000Y-3098000D01*
X11253000Y-3252000D02*
X11353000Y-3352000D01*
X11353000Y-3252000D02*
X11253000Y-3352000D01*
D11*
X9682677Y-4606584D02*
X9682677Y-4406584D01*
X9682677Y-4406584D02*
X9730296Y-4406584D01*
X9730296Y-4406584D02*
X9758867Y-4416108D01*
X9758867Y-4416108D02*
X9777915Y-4435155D01*
X9777915Y-4435155D02*
X9787439Y-4454203D01*
X9787439Y-4454203D02*
X9796963Y-4492298D01*
X9796963Y-4492298D02*
X9796963Y-4520870D01*
X9796963Y-4520870D02*
X9787439Y-4558965D01*
X9787439Y-4558965D02*
X9777915Y-4578012D01*
X9777915Y-4578012D02*
X9758867Y-4597060D01*
X9758867Y-4597060D02*
X9730296Y-4606584D01*
X9730296Y-4606584D02*
X9682677Y-4606584D01*
X9882677Y-4606584D02*
X9882677Y-4473250D01*
X9882677Y-4511346D02*
X9892201Y-4492298D01*
X9892201Y-4492298D02*
X9901724Y-4482774D01*
X9901724Y-4482774D02*
X9920772Y-4473250D01*
X9920772Y-4473250D02*
X9939820Y-4473250D01*
X10006486Y-4606584D02*
X10006486Y-4473250D01*
X10006486Y-4406584D02*
X9996963Y-4416108D01*
X9996963Y-4416108D02*
X10006486Y-4425631D01*
X10006486Y-4425631D02*
X10016010Y-4416108D01*
X10016010Y-4416108D02*
X10006486Y-4406584D01*
X10006486Y-4406584D02*
X10006486Y-4425631D01*
X10130296Y-4606584D02*
X10111248Y-4597060D01*
X10111248Y-4597060D02*
X10101724Y-4578012D01*
X10101724Y-4578012D02*
X10101724Y-4406584D01*
X10235058Y-4606584D02*
X10216010Y-4597060D01*
X10216010Y-4597060D02*
X10206486Y-4578012D01*
X10206486Y-4578012D02*
X10206486Y-4406584D01*
X10463629Y-4606584D02*
X10463629Y-4406584D01*
X10463629Y-4406584D02*
X10530296Y-4549441D01*
X10530296Y-4549441D02*
X10596963Y-4406584D01*
X10596963Y-4406584D02*
X10596963Y-4606584D01*
X10777915Y-4606584D02*
X10777915Y-4501822D01*
X10777915Y-4501822D02*
X10768391Y-4482774D01*
X10768391Y-4482774D02*
X10749344Y-4473250D01*
X10749344Y-4473250D02*
X10711248Y-4473250D01*
X10711248Y-4473250D02*
X10692201Y-4482774D01*
X10777915Y-4597060D02*
X10758867Y-4606584D01*
X10758867Y-4606584D02*
X10711248Y-4606584D01*
X10711248Y-4606584D02*
X10692201Y-4597060D01*
X10692201Y-4597060D02*
X10682677Y-4578012D01*
X10682677Y-4578012D02*
X10682677Y-4558965D01*
X10682677Y-4558965D02*
X10692201Y-4539917D01*
X10692201Y-4539917D02*
X10711248Y-4530393D01*
X10711248Y-4530393D02*
X10758867Y-4530393D01*
X10758867Y-4530393D02*
X10777915Y-4520870D01*
X10873153Y-4473250D02*
X10873153Y-4673250D01*
X10873153Y-4482774D02*
X10892201Y-4473250D01*
X10892201Y-4473250D02*
X10930296Y-4473250D01*
X10930296Y-4473250D02*
X10949344Y-4482774D01*
X10949344Y-4482774D02*
X10958867Y-4492298D01*
X10958867Y-4492298D02*
X10968391Y-4511346D01*
X10968391Y-4511346D02*
X10968391Y-4568489D01*
X10968391Y-4568489D02*
X10958867Y-4587536D01*
X10958867Y-4587536D02*
X10949344Y-4597060D01*
X10949344Y-4597060D02*
X10930296Y-4606584D01*
X10930296Y-4606584D02*
X10892201Y-4606584D01*
X10892201Y-4606584D02*
X10873153Y-4597060D01*
X11054105Y-4587536D02*
X11063629Y-4597060D01*
X11063629Y-4597060D02*
X11054105Y-4606584D01*
X11054105Y-4606584D02*
X11044582Y-4597060D01*
X11044582Y-4597060D02*
X11054105Y-4587536D01*
X11054105Y-4587536D02*
X11054105Y-4606584D01*
X11054105Y-4482774D02*
X11063629Y-4492298D01*
X11063629Y-4492298D02*
X11054105Y-4501822D01*
X11054105Y-4501822D02*
X11044582Y-4492298D01*
X11044582Y-4492298D02*
X11054105Y-4482774D01*
X11054105Y-4482774D02*
X11054105Y-4501822D01*
D12*
X9321900Y-4885100D02*
X9421900Y-4985100D01*
X9421900Y-4885100D02*
X9321900Y-4985100D01*
D11*
X9787439Y-5026584D02*
X9673153Y-5026584D01*
X9730296Y-5026584D02*
X9730296Y-4826584D01*
X9730296Y-4826584D02*
X9711248Y-4855155D01*
X9711248Y-4855155D02*
X9692201Y-4874203D01*
X9692201Y-4874203D02*
X9673153Y-4883727D01*
X9873153Y-5007536D02*
X9882677Y-5017060D01*
X9882677Y-5017060D02*
X9873153Y-5026584D01*
X9873153Y-5026584D02*
X9863629Y-5017060D01*
X9863629Y-5017060D02*
X9873153Y-5007536D01*
X9873153Y-5007536D02*
X9873153Y-5026584D01*
X10006486Y-4826584D02*
X10025534Y-4826584D01*
X10025534Y-4826584D02*
X10044582Y-4836108D01*
X10044582Y-4836108D02*
X10054105Y-4845631D01*
X10054105Y-4845631D02*
X10063629Y-4864679D01*
X10063629Y-4864679D02*
X10073153Y-4902774D01*
X10073153Y-4902774D02*
X10073153Y-4950393D01*
X10073153Y-4950393D02*
X10063629Y-4988489D01*
X10063629Y-4988489D02*
X10054105Y-5007536D01*
X10054105Y-5007536D02*
X10044582Y-5017060D01*
X10044582Y-5017060D02*
X10025534Y-5026584D01*
X10025534Y-5026584D02*
X10006486Y-5026584D01*
X10006486Y-5026584D02*
X9987439Y-5017060D01*
X9987439Y-5017060D02*
X9977915Y-5007536D01*
X9977915Y-5007536D02*
X9968391Y-4988489D01*
X9968391Y-4988489D02*
X9958867Y-4950393D01*
X9958867Y-4950393D02*
X9958867Y-4902774D01*
X9958867Y-4902774D02*
X9968391Y-4864679D01*
X9968391Y-4864679D02*
X9977915Y-4845631D01*
X9977915Y-4845631D02*
X9987439Y-4836108D01*
X9987439Y-4836108D02*
X10006486Y-4826584D01*
X10196963Y-4826584D02*
X10216010Y-4826584D01*
X10216010Y-4826584D02*
X10235058Y-4836108D01*
X10235058Y-4836108D02*
X10244582Y-4845631D01*
X10244582Y-4845631D02*
X10254105Y-4864679D01*
X10254105Y-4864679D02*
X10263629Y-4902774D01*
X10263629Y-4902774D02*
X10263629Y-4950393D01*
X10263629Y-4950393D02*
X10254105Y-4988489D01*
X10254105Y-4988489D02*
X10244582Y-5007536D01*
X10244582Y-5007536D02*
X10235058Y-5017060D01*
X10235058Y-5017060D02*
X10216010Y-5026584D01*
X10216010Y-5026584D02*
X10196963Y-5026584D01*
X10196963Y-5026584D02*
X10177915Y-5017060D01*
X10177915Y-5017060D02*
X10168391Y-5007536D01*
X10168391Y-5007536D02*
X10158867Y-4988489D01*
X10158867Y-4988489D02*
X10149344Y-4950393D01*
X10149344Y-4950393D02*
X10149344Y-4902774D01*
X10149344Y-4902774D02*
X10158867Y-4864679D01*
X10158867Y-4864679D02*
X10168391Y-4845631D01*
X10168391Y-4845631D02*
X10177915Y-4836108D01*
X10177915Y-4836108D02*
X10196963Y-4826584D01*
X10387439Y-4826584D02*
X10406486Y-4826584D01*
X10406486Y-4826584D02*
X10425534Y-4836108D01*
X10425534Y-4836108D02*
X10435058Y-4845631D01*
X10435058Y-4845631D02*
X10444582Y-4864679D01*
X10444582Y-4864679D02*
X10454105Y-4902774D01*
X10454105Y-4902774D02*
X10454105Y-4950393D01*
X10454105Y-4950393D02*
X10444582Y-4988489D01*
X10444582Y-4988489D02*
X10435058Y-5007536D01*
X10435058Y-5007536D02*
X10425534Y-5017060D01*
X10425534Y-5017060D02*
X10406486Y-5026584D01*
X10406486Y-5026584D02*
X10387439Y-5026584D01*
X10387439Y-5026584D02*
X10368391Y-5017060D01*
X10368391Y-5017060D02*
X10358867Y-5007536D01*
X10358867Y-5007536D02*
X10349344Y-4988489D01*
X10349344Y-4988489D02*
X10339820Y-4950393D01*
X10339820Y-4950393D02*
X10339820Y-4902774D01*
X10339820Y-4902774D02*
X10349344Y-4864679D01*
X10349344Y-4864679D02*
X10358867Y-4845631D01*
X10358867Y-4845631D02*
X10368391Y-4836108D01*
X10368391Y-4836108D02*
X10387439Y-4826584D01*
X10539820Y-5026584D02*
X10539820Y-4893250D01*
X10539820Y-4912298D02*
X10549344Y-4902774D01*
X10549344Y-4902774D02*
X10568391Y-4893250D01*
X10568391Y-4893250D02*
X10596963Y-4893250D01*
X10596963Y-4893250D02*
X10616010Y-4902774D01*
X10616010Y-4902774D02*
X10625534Y-4921822D01*
X10625534Y-4921822D02*
X10625534Y-5026584D01*
X10625534Y-4921822D02*
X10635058Y-4902774D01*
X10635058Y-4902774D02*
X10654105Y-4893250D01*
X10654105Y-4893250D02*
X10682677Y-4893250D01*
X10682677Y-4893250D02*
X10701725Y-4902774D01*
X10701725Y-4902774D02*
X10711248Y-4921822D01*
X10711248Y-4921822D02*
X10711248Y-5026584D01*
X10806486Y-5026584D02*
X10806486Y-4893250D01*
X10806486Y-4912298D02*
X10816010Y-4902774D01*
X10816010Y-4902774D02*
X10835058Y-4893250D01*
X10835058Y-4893250D02*
X10863629Y-4893250D01*
X10863629Y-4893250D02*
X10882677Y-4902774D01*
X10882677Y-4902774D02*
X10892201Y-4921822D01*
X10892201Y-4921822D02*
X10892201Y-5026584D01*
X10892201Y-4921822D02*
X10901725Y-4902774D01*
X10901725Y-4902774D02*
X10920772Y-4893250D01*
X10920772Y-4893250D02*
X10949344Y-4893250D01*
X10949344Y-4893250D02*
X10968391Y-4902774D01*
X10968391Y-4902774D02*
X10977915Y-4921822D01*
X10977915Y-4921822D02*
X10977915Y-5026584D01*
X11368391Y-4817060D02*
X11196963Y-5074203D01*
X11625534Y-4826584D02*
X11644582Y-4826584D01*
X11644582Y-4826584D02*
X11663629Y-4836108D01*
X11663629Y-4836108D02*
X11673153Y-4845631D01*
X11673153Y-4845631D02*
X11682677Y-4864679D01*
X11682677Y-4864679D02*
X11692201Y-4902774D01*
X11692201Y-4902774D02*
X11692201Y-4950393D01*
X11692201Y-4950393D02*
X11682677Y-4988489D01*
X11682677Y-4988489D02*
X11673153Y-5007536D01*
X11673153Y-5007536D02*
X11663629Y-5017060D01*
X11663629Y-5017060D02*
X11644582Y-5026584D01*
X11644582Y-5026584D02*
X11625534Y-5026584D01*
X11625534Y-5026584D02*
X11606486Y-5017060D01*
X11606486Y-5017060D02*
X11596963Y-5007536D01*
X11596963Y-5007536D02*
X11587439Y-4988489D01*
X11587439Y-4988489D02*
X11577915Y-4950393D01*
X11577915Y-4950393D02*
X11577915Y-4902774D01*
X11577915Y-4902774D02*
X11587439Y-4864679D01*
X11587439Y-4864679D02*
X11596963Y-4845631D01*
X11596963Y-4845631D02*
X11606486Y-4836108D01*
X11606486Y-4836108D02*
X11625534Y-4826584D01*
X11777915Y-5007536D02*
X11787439Y-5017060D01*
X11787439Y-5017060D02*
X11777915Y-5026584D01*
X11777915Y-5026584D02*
X11768391Y-5017060D01*
X11768391Y-5017060D02*
X11777915Y-5007536D01*
X11777915Y-5007536D02*
X11777915Y-5026584D01*
X11911248Y-4826584D02*
X11930296Y-4826584D01*
X11930296Y-4826584D02*
X11949344Y-4836108D01*
X11949344Y-4836108D02*
X11958867Y-4845631D01*
X11958867Y-4845631D02*
X11968391Y-4864679D01*
X11968391Y-4864679D02*
X11977915Y-4902774D01*
X11977915Y-4902774D02*
X11977915Y-4950393D01*
X11977915Y-4950393D02*
X11968391Y-4988489D01*
X11968391Y-4988489D02*
X11958867Y-5007536D01*
X11958867Y-5007536D02*
X11949344Y-5017060D01*
X11949344Y-5017060D02*
X11930296Y-5026584D01*
X11930296Y-5026584D02*
X11911248Y-5026584D01*
X11911248Y-5026584D02*
X11892201Y-5017060D01*
X11892201Y-5017060D02*
X11882677Y-5007536D01*
X11882677Y-5007536D02*
X11873153Y-4988489D01*
X11873153Y-4988489D02*
X11863629Y-4950393D01*
X11863629Y-4950393D02*
X11863629Y-4902774D01*
X11863629Y-4902774D02*
X11873153Y-4864679D01*
X11873153Y-4864679D02*
X11882677Y-4845631D01*
X11882677Y-4845631D02*
X11892201Y-4836108D01*
X11892201Y-4836108D02*
X11911248Y-4826584D01*
X12044582Y-4826584D02*
X12168391Y-4826584D01*
X12168391Y-4826584D02*
X12101725Y-4902774D01*
X12101725Y-4902774D02*
X12130296Y-4902774D01*
X12130296Y-4902774D02*
X12149344Y-4912298D01*
X12149344Y-4912298D02*
X12158867Y-4921822D01*
X12158867Y-4921822D02*
X12168391Y-4940870D01*
X12168391Y-4940870D02*
X12168391Y-4988489D01*
X12168391Y-4988489D02*
X12158867Y-5007536D01*
X12158867Y-5007536D02*
X12149344Y-5017060D01*
X12149344Y-5017060D02*
X12130296Y-5026584D01*
X12130296Y-5026584D02*
X12073153Y-5026584D01*
X12073153Y-5026584D02*
X12054106Y-5017060D01*
X12054106Y-5017060D02*
X12044582Y-5007536D01*
X12263629Y-5026584D02*
X12301725Y-5026584D01*
X12301725Y-5026584D02*
X12320772Y-5017060D01*
X12320772Y-5017060D02*
X12330296Y-5007536D01*
X12330296Y-5007536D02*
X12349344Y-4978965D01*
X12349344Y-4978965D02*
X12358867Y-4940870D01*
X12358867Y-4940870D02*
X12358867Y-4864679D01*
X12358867Y-4864679D02*
X12349344Y-4845631D01*
X12349344Y-4845631D02*
X12339820Y-4836108D01*
X12339820Y-4836108D02*
X12320772Y-4826584D01*
X12320772Y-4826584D02*
X12282677Y-4826584D01*
X12282677Y-4826584D02*
X12263629Y-4836108D01*
X12263629Y-4836108D02*
X12254106Y-4845631D01*
X12254106Y-4845631D02*
X12244582Y-4864679D01*
X12244582Y-4864679D02*
X12244582Y-4912298D01*
X12244582Y-4912298D02*
X12254106Y-4931346D01*
X12254106Y-4931346D02*
X12263629Y-4940870D01*
X12263629Y-4940870D02*
X12282677Y-4950393D01*
X12282677Y-4950393D02*
X12320772Y-4950393D01*
X12320772Y-4950393D02*
X12339820Y-4940870D01*
X12339820Y-4940870D02*
X12349344Y-4931346D01*
X12349344Y-4931346D02*
X12358867Y-4912298D01*
X12530296Y-4893250D02*
X12530296Y-5026584D01*
X12482677Y-4817060D02*
X12435058Y-4959917D01*
X12435058Y-4959917D02*
X12558867Y-4959917D01*
X12625534Y-4826584D02*
X12625534Y-4864679D01*
X12701725Y-4826584D02*
X12701725Y-4864679D01*
X12996963Y-5102774D02*
X12987439Y-5093250D01*
X12987439Y-5093250D02*
X12968391Y-5064679D01*
X12968391Y-5064679D02*
X12958868Y-5045631D01*
X12958868Y-5045631D02*
X12949344Y-5017060D01*
X12949344Y-5017060D02*
X12939820Y-4969441D01*
X12939820Y-4969441D02*
X12939820Y-4931346D01*
X12939820Y-4931346D02*
X12949344Y-4883727D01*
X12949344Y-4883727D02*
X12958868Y-4855155D01*
X12958868Y-4855155D02*
X12968391Y-4836108D01*
X12968391Y-4836108D02*
X12987439Y-4807536D01*
X12987439Y-4807536D02*
X12996963Y-4798012D01*
X13168391Y-4826584D02*
X13073153Y-4826584D01*
X13073153Y-4826584D02*
X13063629Y-4921822D01*
X13063629Y-4921822D02*
X13073153Y-4912298D01*
X13073153Y-4912298D02*
X13092201Y-4902774D01*
X13092201Y-4902774D02*
X13139820Y-4902774D01*
X13139820Y-4902774D02*
X13158868Y-4912298D01*
X13158868Y-4912298D02*
X13168391Y-4921822D01*
X13168391Y-4921822D02*
X13177915Y-4940870D01*
X13177915Y-4940870D02*
X13177915Y-4988489D01*
X13177915Y-4988489D02*
X13168391Y-5007536D01*
X13168391Y-5007536D02*
X13158868Y-5017060D01*
X13158868Y-5017060D02*
X13139820Y-5026584D01*
X13139820Y-5026584D02*
X13092201Y-5026584D01*
X13092201Y-5026584D02*
X13073153Y-5017060D01*
X13073153Y-5017060D02*
X13063629Y-5007536D01*
X13349344Y-4826584D02*
X13311248Y-4826584D01*
X13311248Y-4826584D02*
X13292201Y-4836108D01*
X13292201Y-4836108D02*
X13282677Y-4845631D01*
X13282677Y-4845631D02*
X13263629Y-4874203D01*
X13263629Y-4874203D02*
X13254106Y-4912298D01*
X13254106Y-4912298D02*
X13254106Y-4988489D01*
X13254106Y-4988489D02*
X13263629Y-5007536D01*
X13263629Y-5007536D02*
X13273153Y-5017060D01*
X13273153Y-5017060D02*
X13292201Y-5026584D01*
X13292201Y-5026584D02*
X13330296Y-5026584D01*
X13330296Y-5026584D02*
X13349344Y-5017060D01*
X13349344Y-5017060D02*
X13358868Y-5007536D01*
X13358868Y-5007536D02*
X13368391Y-4988489D01*
X13368391Y-4988489D02*
X13368391Y-4940870D01*
X13368391Y-4940870D02*
X13358868Y-4921822D01*
X13358868Y-4921822D02*
X13349344Y-4912298D01*
X13349344Y-4912298D02*
X13330296Y-4902774D01*
X13330296Y-4902774D02*
X13292201Y-4902774D01*
X13292201Y-4902774D02*
X13273153Y-4912298D01*
X13273153Y-4912298D02*
X13263629Y-4921822D01*
X13263629Y-4921822D02*
X13254106Y-4940870D01*
X13606487Y-5026584D02*
X13606487Y-4826584D01*
X13692201Y-5026584D02*
X13692201Y-4921822D01*
X13692201Y-4921822D02*
X13682677Y-4902774D01*
X13682677Y-4902774D02*
X13663630Y-4893250D01*
X13663630Y-4893250D02*
X13635058Y-4893250D01*
X13635058Y-4893250D02*
X13616010Y-4902774D01*
X13616010Y-4902774D02*
X13606487Y-4912298D01*
X13816010Y-5026584D02*
X13796963Y-5017060D01*
X13796963Y-5017060D02*
X13787439Y-5007536D01*
X13787439Y-5007536D02*
X13777915Y-4988489D01*
X13777915Y-4988489D02*
X13777915Y-4931346D01*
X13777915Y-4931346D02*
X13787439Y-4912298D01*
X13787439Y-4912298D02*
X13796963Y-4902774D01*
X13796963Y-4902774D02*
X13816010Y-4893250D01*
X13816010Y-4893250D02*
X13844582Y-4893250D01*
X13844582Y-4893250D02*
X13863630Y-4902774D01*
X13863630Y-4902774D02*
X13873153Y-4912298D01*
X13873153Y-4912298D02*
X13882677Y-4931346D01*
X13882677Y-4931346D02*
X13882677Y-4988489D01*
X13882677Y-4988489D02*
X13873153Y-5007536D01*
X13873153Y-5007536D02*
X13863630Y-5017060D01*
X13863630Y-5017060D02*
X13844582Y-5026584D01*
X13844582Y-5026584D02*
X13816010Y-5026584D01*
X13996963Y-5026584D02*
X13977915Y-5017060D01*
X13977915Y-5017060D02*
X13968391Y-4998012D01*
X13968391Y-4998012D02*
X13968391Y-4826584D01*
X14149344Y-5017060D02*
X14130296Y-5026584D01*
X14130296Y-5026584D02*
X14092201Y-5026584D01*
X14092201Y-5026584D02*
X14073153Y-5017060D01*
X14073153Y-5017060D02*
X14063630Y-4998012D01*
X14063630Y-4998012D02*
X14063630Y-4921822D01*
X14063630Y-4921822D02*
X14073153Y-4902774D01*
X14073153Y-4902774D02*
X14092201Y-4893250D01*
X14092201Y-4893250D02*
X14130296Y-4893250D01*
X14130296Y-4893250D02*
X14149344Y-4902774D01*
X14149344Y-4902774D02*
X14158868Y-4921822D01*
X14158868Y-4921822D02*
X14158868Y-4940870D01*
X14158868Y-4940870D02*
X14063630Y-4959917D01*
X14235058Y-5017060D02*
X14254106Y-5026584D01*
X14254106Y-5026584D02*
X14292201Y-5026584D01*
X14292201Y-5026584D02*
X14311249Y-5017060D01*
X14311249Y-5017060D02*
X14320772Y-4998012D01*
X14320772Y-4998012D02*
X14320772Y-4988489D01*
X14320772Y-4988489D02*
X14311249Y-4969441D01*
X14311249Y-4969441D02*
X14292201Y-4959917D01*
X14292201Y-4959917D02*
X14263630Y-4959917D01*
X14263630Y-4959917D02*
X14244582Y-4950393D01*
X14244582Y-4950393D02*
X14235058Y-4931346D01*
X14235058Y-4931346D02*
X14235058Y-4921822D01*
X14235058Y-4921822D02*
X14244582Y-4902774D01*
X14244582Y-4902774D02*
X14263630Y-4893250D01*
X14263630Y-4893250D02*
X14292201Y-4893250D01*
X14292201Y-4893250D02*
X14311249Y-4902774D01*
X14387439Y-5102774D02*
X14396963Y-5093250D01*
X14396963Y-5093250D02*
X14416011Y-5064679D01*
X14416011Y-5064679D02*
X14425534Y-5045631D01*
X14425534Y-5045631D02*
X14435058Y-5017060D01*
X14435058Y-5017060D02*
X14444582Y-4969441D01*
X14444582Y-4969441D02*
X14444582Y-4931346D01*
X14444582Y-4931346D02*
X14435058Y-4883727D01*
X14435058Y-4883727D02*
X14425534Y-4855155D01*
X14425534Y-4855155D02*
X14416011Y-4836108D01*
X14416011Y-4836108D02*
X14396963Y-4807536D01*
X14396963Y-4807536D02*
X14387439Y-4798012D01*
M02*
